<svg width="84" height="78" viewBox="0 0 84 78" fill="none" xmlns="http://www.w3.org/2000/svg">
<mask id="path-1-inside-1_50_145" fill="white">
<path d="M27.8457 0C38.8912 0.000195291 47.8457 8.95443 47.8457 20V70.5918H0V20C7.67149e-06 8.95431 8.95431 0 20 0H27.8457Z"/>
</mask>
<path d="M27.8457 0C38.8912 0.000195291 47.8457 8.95443 47.8457 20V70.5918H0V20C7.67149e-06 8.95431 8.95431 0 20 0H27.8457Z" fill="white"/>
<path d="M27.8457 0L27.8458 -5H27.8457V0ZM47.8457 20H52.8457V20H47.8457ZM47.8457 70.5918V75.5918H52.8457V70.5918H47.8457ZM0 70.5918H-5V75.5918H0V70.5918ZM0 20L-5 20V20H0ZM27.8457 0L27.8456 5C36.1299 5.00015 42.8457 11.7159 42.8457 20H47.8457H52.8457C52.8457 6.19291 41.6526 -4.99976 27.8458 -5L27.8457 0ZM47.8457 20H42.8457V70.5918H47.8457H52.8457V20H47.8457ZM47.8457 70.5918V65.5918H0V70.5918V75.5918H47.8457V70.5918ZM0 70.5918H5V20H0H-5V70.5918H0ZM0 20L5 20C5.00001 11.7157 11.7157 5 20 5V0V-5C6.19288 -5 -4.99999 6.19289 -5 20L0 20ZM20 0V5H27.8457V0V-5H20V0Z" fill="black" mask="url(#path-1-inside-1_50_145)"/>
<mask id="path-3-inside-2_50_145" fill="white">
<path d="M44.3169 3.92178C55.3624 3.92197 64.3169 12.8762 64.3169 23.9218V74.5136H16.4712V23.9218C16.4712 12.8761 25.4255 3.92178 36.4712 3.92178H44.3169Z"/>
</mask>
<path d="M44.3169 3.92178C55.3624 3.92197 64.3169 12.8762 64.3169 23.9218V74.5136H16.4712V23.9218C16.4712 12.8761 25.4255 3.92178 36.4712 3.92178H44.3169Z" fill="white"/>
<path d="M44.3169 3.92178L44.317 -1.07822H44.3169V3.92178ZM64.3169 23.9218H69.3169V23.9218H64.3169ZM64.3169 74.5136V79.5136H69.3169V74.5136H64.3169ZM16.4712 74.5136H11.4712V79.5136H16.4712V74.5136ZM16.4712 23.9218L11.4712 23.9218V23.9218H16.4712ZM44.3169 3.92178L44.3168 8.92178C52.6011 8.92192 59.3169 15.6377 59.3169 23.9218H64.3169H69.3169C69.3169 10.1147 58.1238 -1.07798 44.317 -1.07822L44.3169 3.92178ZM64.3169 23.9218H59.3169V74.5136H64.3169H69.3169V23.9218H64.3169ZM64.3169 74.5136V69.5136H16.4712V74.5136V79.5136H64.3169V74.5136ZM16.4712 74.5136H21.4712V23.9218H16.4712H11.4712V74.5136H16.4712ZM16.4712 23.9218L21.4712 23.9218C21.4712 15.6375 28.1869 8.92178 36.4712 8.92178V3.92178V-1.07822C22.6641 -1.07822 11.4712 10.1147 11.4712 23.9218L16.4712 23.9218ZM36.4712 3.92178V8.92178H44.3169V3.92178V-1.07822H36.4712V3.92178Z" fill="black" mask="url(#path-3-inside-2_50_145)"/>
<mask id="path-5-inside-3_50_145" fill="white">
<path d="M63.9258 7.0592C74.9713 7.0594 83.9258 16.0136 83.9258 27.0592V37.2584C83.9258 37.2828 83.9249 37.3073 83.9248 37.3317V77.651H36.0801V27.0592C36.0801 16.0135 45.0344 7.0592 56.0801 7.0592H63.9258Z"/>
</mask>
<path d="M63.9258 7.0592C74.9713 7.0594 83.9258 16.0136 83.9258 27.0592V37.2584C83.9258 37.2828 83.9249 37.3073 83.9248 37.3317V77.651H36.0801V27.0592C36.0801 16.0135 45.0344 7.0592 56.0801 7.0592H63.9258Z" fill="white"/>
<path d="M63.9258 7.0592L63.9259 2.0592H63.9258V7.0592ZM83.9258 27.0592H88.9258V27.0592H83.9258ZM83.9258 37.2584L88.9258 37.2585V37.2584H83.9258ZM83.9248 37.3317L78.9248 37.3136L78.9248 37.3226V37.3317H83.9248ZM83.9248 77.651V82.651H88.9248V77.651H83.9248ZM36.0801 77.651H31.0801V82.651H36.0801V77.651ZM36.0801 27.0592L31.0801 27.0592V27.0592H36.0801ZM63.9258 7.0592L63.9257 12.0592C72.21 12.0594 78.9258 18.7751 78.9258 27.0592H83.9258H88.9258C88.9258 13.2521 77.7327 2.05945 63.9259 2.0592L63.9258 7.0592ZM83.9258 27.0592H78.9258V37.2584H83.9258H88.9258V27.0592H83.9258ZM83.9258 37.2584L78.9258 37.2583C78.9258 37.2347 78.926 37.2166 78.9261 37.2074C78.9262 37.1991 78.9264 37.1935 78.9262 37.1996C78.9262 37.2011 78.9261 37.2068 78.926 37.2119C78.9259 37.2176 78.9258 37.2257 78.9256 37.235C78.9253 37.2534 78.925 37.2809 78.9248 37.3136L83.9248 37.3317L88.9248 37.3497C88.9247 37.3703 88.9245 37.3856 88.9244 37.3917C88.9243 37.3962 88.9242 37.4004 88.9244 37.3905C88.9245 37.3844 88.9249 37.3666 88.9252 37.3461C88.9255 37.3247 88.9258 37.2944 88.9258 37.2585L83.9258 37.2584ZM83.9248 37.3317H78.9248V77.651H83.9248H88.9248V37.3317H83.9248ZM83.9248 77.651V72.651H36.0801V77.651V82.651H83.9248V77.651ZM36.0801 77.651H41.0801V27.0592H36.0801H31.0801V77.651H36.0801ZM36.0801 27.0592L41.0801 27.0592C41.0801 18.7749 47.7958 12.0592 56.0801 12.0592V7.0592V2.0592C42.273 2.0592 31.0801 13.2521 31.0801 27.0592L36.0801 27.0592ZM56.0801 7.0592V12.0592H63.9258V7.0592V2.0592H56.0801V7.0592Z" fill="black" mask="url(#path-5-inside-3_50_145)"/>
</svg>
